<?xml version="1.0" encoding="UTF-8" standalone="no"?>
<!-- Created with Inkscape (http://www.inkscape.org/) -->

<svg
   xmlns:dc="http://purl.org/dc/elements/1.1/"
   xmlns:cc="http://creativecommons.org/ns#"
   xmlns:rdf="http://www.w3.org/1999/02/22-rdf-syntax-ns#"
   xmlns:svg="http://www.w3.org/2000/svg"
   xmlns="http://www.w3.org/2000/svg"
   xmlns:sodipodi="http://sodipodi.sourceforge.net/DTD/sodipodi-0.dtd"
   xmlns:inkscape="http://www.inkscape.org/namespaces/inkscape"
   id="svg2"
   version="1.1"
   inkscape:version="0.48.4 r9939"
   width="500"
   height="488"
   sodipodi:docname="MTV_HD_Logo_2013.png">
  <metadata
     id="metadata8">
    <rdf:RDF>
      <cc:Work
         rdf:about="">
        <dc:format>image/svg+xml</dc:format>
        <dc:type
           rdf:resource="http://purl.org/dc/dcmitype/StillImage" />
        <dc:title></dc:title>
      </cc:Work>
    </rdf:RDF>
  </metadata>
  <defs
     id="defs6" />
  <sodipodi:namedview
     pagecolor="#ffffff"
     bordercolor="#666666"
     borderopacity="1"
     objecttolerance="10"
     gridtolerance="10"
     guidetolerance="10"
     inkscape:pageopacity="0"
     inkscape:pageshadow="2"
     inkscape:window-width="1920"
     inkscape:window-height="1005"
     id="namedview4"
     showgrid="false"
     inkscape:zoom="0.92836783"
     inkscape:cx="243.29258"
     inkscape:cy="196.86518"
     inkscape:window-x="-9"
     inkscape:window-y="-9"
     inkscape:window-maximized="1"
     inkscape:current-layer="svg2" />
  <g
     id="g3898"
     style="fill:#000000">
    <g
       style="fill:#000000"
       id="g3"
       transform="matrix(21.934635,0,0,21.934635,-11164.5,-6885.6521)">
	<path
   style="fill:#000000"
   id="path5"
   inkscape:connector-curvature="0"
   d="m 508.988,313.916 c 2.598,-10e-4 5.195,-0.002 7.793,10e-4 0.887,0.941 1.779,1.877 2.671,2.813 0.884,-0.943 1.782,-1.874 2.668,-2.814 2.612,-10e-4 5.225,-10e-4 7.836,0 10e-4,1.932 -10e-4,3.863 10e-4,5.796 -0.006,0.088 0.019,0.186 -0.024,0.268 -0.648,1.059 -1.21,2.173 -1.632,3.341 -0.054,0.126 -0.104,0.271 -0.226,0.348 -0.104,0.044 -0.257,0.025 -0.313,-0.085 -0.074,-0.139 -0.07,-0.301 -0.091,-0.453 -0.068,-0.589 -0.13,-1.181 -0.227,-1.767 -0.058,-0.299 -0.124,-0.622 -0.347,-0.847 -0.209,-0.204 -0.529,-0.224 -0.801,-0.158 -0.25,0.055 -0.485,0.204 -0.611,0.431 -0.164,0.281 -0.162,0.622 -0.103,0.933 0.103,0.545 0.287,1.07 0.475,1.591 0.372,0.982 0.749,1.964 1.122,2.945 0.093,0.251 0.24,0.51 0.497,0.623 0.221,0.093 0.471,0.092 0.705,0.058 0.203,-0.031 0.378,-0.166 0.479,-0.341 0.188,-0.32 0.261,-0.689 0.372,-1.04 0.222,-0.716 0.435,-1.438 0.721,-2.132 0.006,1.528 0,3.057 0.002,4.585 -1.63,10e-4 -3.261,0 -4.892,10e-4 -0.066,-0.568 -0.114,-1.141 -0.084,-1.712 0.007,-0.558 0.03,-1.113 0.024,-1.671 0.017,-0.809 -0.088,-1.611 -0.134,-2.418 -0.052,-0.626 0.016,-1.256 -0.04,-1.882 0.463,-0.29 0.946,-0.545 1.412,-0.83 0.313,-0.194 0.649,-0.361 0.917,-0.619 0.148,-0.144 0.263,-0.364 0.174,-0.57 -0.188,-0.382 -0.683,-0.589 -1.082,-0.421 -0.327,0.15 -0.521,0.477 -0.819,0.667 -0.372,0.23 -0.747,0.456 -1.129,0.671 -0.289,-0.151 -0.636,-0.201 -0.948,-0.103 -0.17,0.055 -0.327,0.171 -0.395,0.34 -0.08,0.186 -0.013,0.39 -0.049,0.581 -0.023,0.118 -0.115,0.202 -0.215,0.258 -0.422,0.25 -0.848,0.494 -1.269,0.746 -0.433,0.253 -0.853,0.544 -1.34,0.685 -0.296,0.087 -0.643,0.187 -0.786,0.489 -0.137,0.294 0.025,0.632 0.254,0.828 0.197,0.188 0.498,0.228 0.75,0.139 0.329,-0.108 0.6,-0.336 0.873,-0.54 0.34,-0.26 0.688,-0.508 1.036,-0.757 0.188,-0.129 0.377,-0.27 0.598,-0.339 0.15,-0.056 0.339,0.009 0.402,0.161 0.149,0.334 0.102,0.712 0.109,1.068 0.009,1.188 -0.1,2.372 -0.141,3.559 -0.003,0.557 -0.008,1.113 0.018,1.67 -0.432,-0.002 -0.863,0.004 -1.295,-0.004 0.004,-1.314 0.003,-2.629 10e-4,-3.943 -0.82,0.689 -1.639,1.381 -2.458,2.07 -0.821,-0.688 -1.639,-1.38 -2.458,-2.068 -0.002,1.314 -10e-4,2.63 0,3.944 -2.668,0.002 -5.337,10e-4 -8.004,0 0.003,-4.699 0.003,-9.397 0.003,-14.096 l 0,0 z" />

	<path
   style="fill:#000000"
   id="path7"
   inkscape:connector-curvature="0"
   d="m 517.514,313.918 2.43624,1.06667 0.21776,0.21633 c -0.235,0.258 -0.483,0.504 -0.718,0.763 -0.644,-0.683 -1.297,-1.357 -1.936,-2.046 z"
   sodipodi:nodetypes="ccccc" />

	<path
   style="fill:#000000"
   id="path9"
   inkscape:connector-curvature="0"
   d="m 530.483,313.909 c 0.433,0.26 0.867,0.518 1.297,0.781 -0.003,0.957 -10e-4,1.915 -10e-4,2.873 -0.461,0.507 -0.892,1.042 -1.294,1.598 -0.005,-1.75 -10e-4,-3.501 -0.002,-5.252 z" />

	<path
   style="fill:#000000"
   id="path11"
   inkscape:connector-curvature="0"
   d="m 530.581,322.084 c 0.354,-0.661 0.75,-1.302 1.196,-1.905 0.002,2.611 0,5.222 10e-4,7.832 -0.432,10e-4 -0.864,10e-4 -1.296,0 -10e-4,-1.873 10e-4,-3.747 -10e-4,-5.621 -0.01,-0.111 0.05,-0.21 0.1,-0.306 l 0,0 z" />

	<path
   style="fill:#000000"
   id="path13"
   inkscape:connector-curvature="0"
   d="m 517.518,325.2053 c 0.358,0.297 0.71,0.604 1.072,0.896 0.007,0.637 0.002,1.274 0.003,1.912 -0.358,0 -0.717,0 -1.075,0 0,-0.936 -10e-4,-1.873 0,-2.808 z" />

	<path
   style="fill:#000000"
   id="path15"
   inkscape:connector-curvature="0"
   d="m 520.227,326.175 c 0.381,-0.322 0.763,-0.643 1.145,-0.964 -0.003,0.259 0.004,0.518 -0.005,0.775 -0.08,0.063 -0.158,0.126 -0.235,0.191 -0.303,10e-4 -0.603,0.004 -0.905,-0.002 z" />

</g>
    <path
       id="rect3007"
       d="M 0 321 L 0 488 L 500 488 L 500 321 L 0 321 z M 175 357.5 L 200 357.5 L 194.46875 392.75 L 222.28125 392.75 L 227.8125 357.5 L 252.8125 357.5 L 238.0625 451.5 L 213.0625 451.5 L 218.90625 414.25 L 191.09375 414.25 L 185.25 451.5 L 160.25 451.5 L 175 357.5 z M 264.75 357.5 L 295.5625 357.5 C 299.51649 357.5 312.15226 358.10804 319.40625 361.65625 C 324.62649 364.20967 329.27762 368.41915 332.3125 373.375 C 337.1162 381.21927 339.45141 390.80241 339.5625 400 C 339.66987 408.88922 337.43249 418.09538 333.1875 425.90625 C 328.93424 433.73236 322.73443 441.12556 314.90625 445.375 C 304.75809 450.88382 290.85159 451.5 280.8125 451.5 L 250 451.5 L 264.75 357.5 z M 287.3125 378.59375 L 279.3125 429.59375 L 284.8125 429.59375 C 290.25924 429.59375 297.75608 429.3579 302.9375 426.03125 C 307.28174 423.24211 309.95951 418.22424 311.96875 413.46875 C 313.9845 408.69784 314.90375 403.331 314.6875 398.15625 C 314.5281 394.34202 313.67261 390.39183 311.75 387.09375 C 310.28253 384.57643 308.08505 382.31333 305.5 380.96875 C 301.67928 378.98145 294.95763 378.59375 292.8125 378.59375 L 287.3125 378.59375 z "
       style="opacity:1;fill:#000000;fill-opacity:1;stroke:none" />
  </g>
</svg>
